<svg width="22" height="22" viewBox="0 0 22 22" fill="none" xmlns="http://www.w3.org/2000/svg">
<g clip-path="url(#clip0_4099_1005)">
<path d="M2.29688 20.4945V19.3077C2.29687 17.1044 3.21383 14.9913 4.84601 13.4333C6.4782 11.8753 8.69191 11 11.0002 11M11.0002 11C13.3084 11 15.5221 11.8753 17.1543 13.4333C18.7865 14.9913 19.7035 17.1044 19.7035 19.3077V20.4945M11.0002 11C12.3192 11 13.5842 10.4998 14.5168 9.60956C15.4495 8.71928 15.9735 7.5118 15.9735 6.25275C15.9735 4.9937 15.4495 3.78621 14.5168 2.89593C13.5842 2.00565 12.3192 1.50549 11.0002 1.50549C9.68117 1.50549 8.41619 2.00565 7.48351 2.89593C6.55083 3.78621 6.02686 4.9937 6.02686 6.25275C6.02686 7.5118 6.55083 8.71928 7.48351 9.60956C8.41619 10.4998 9.68117 11 11.0002 11Z" stroke="#ED7D31" stroke-width="1.5" stroke-linecap="round" stroke-linejoin="round"/>
</g>
<defs>
<clipPath id="clip0_4099_1005">
<rect width="20.5714" height="20.5714" fill="white" transform="translate(0.714355 0.714294)"/>
</clipPath>
</defs>
</svg>
