<svg width="22" height="21" viewBox="0 0 22 21" fill="none" xmlns="http://www.w3.org/2000/svg">
<g clip-path="url(#clip0_3783_552)">
<path d="M2.29688 19.9945V18.8077C2.29687 16.6044 3.21383 14.4913 4.84601 12.9333C6.4782 11.3753 8.69191 10.5 11.0002 10.5M11.0002 10.5C13.3084 10.5 15.5221 11.3753 17.1543 12.9333C18.7865 14.4913 19.7035 16.6044 19.7035 18.8077V19.9945M11.0002 10.5C12.3192 10.5 13.5842 9.99984 14.5168 9.10956C15.4495 8.21928 15.9735 7.0118 15.9735 5.75275C15.9735 4.4937 15.4495 3.28621 14.5168 2.39593C13.5842 1.50565 12.3192 1.00549 11.0002 1.00549C9.68117 1.00549 8.41619 1.50565 7.48351 2.39593C6.55083 3.28621 6.02686 4.4937 6.02686 5.75275C6.02686 7.0118 6.55083 8.21928 7.48351 9.10956C8.41619 9.99984 9.68117 10.5 11.0002 10.5Z" stroke="#ED7D31" stroke-width="1.5" stroke-linecap="round" stroke-linejoin="round"/>
</g>
<defs>
<clipPath id="clip0_3783_552">
<rect width="20.5714" height="20.5714" fill="white" transform="translate(0.714355 0.214279)"/>
</clipPath>
</defs>
</svg>
