<svg width="24" height="24" viewBox="0 0 24 24" fill="none" xmlns="http://www.w3.org/2000/svg">
<path d="M1.95652 13.44C2.21021 13.44 2.4535 13.3389 2.63288 13.1588C2.81227 12.9788 2.91304 12.7346 2.91304 12.48V1.92001H13.4348V7.68001C13.4348 7.93462 13.5356 8.1788 13.7149 8.35883C13.8943 8.53887 14.1376 8.64001 14.3913 8.64001H20.1304V12.48C20.1304 12.7346 20.2312 12.9788 20.4106 13.1588C20.59 13.3389 20.8333 13.44 21.087 13.44C21.3406 13.44 21.5839 13.3389 21.7633 13.1588C21.9427 12.9788 22.0435 12.7346 22.0435 12.48V7.68001C22.0454 7.55228 22.0208 7.42556 21.9714 7.30783C21.922 7.1901 21.8489 7.08392 21.7565 6.99601L15.0728 0.276015C14.8906 0.0977218 14.6458 -0.00142448 14.3913 1.54681e-05H2.91304C2.40567 1.54681e-05 1.91908 0.2023 1.56032 0.56237C1.20155 0.92244 1 1.4108 1 1.92001V12.48C1 12.7346 1.10078 12.9788 1.28016 13.1588C1.45954 13.3389 1.70284 13.44 1.95652 13.44ZM15.3478 3.27601L18.7793 6.72001H15.3478V3.27601ZM3.86957 16.32H1.95652C1.70284 16.32 1.45954 16.4211 1.28016 16.6012C1.10078 16.7812 1 17.0254 1 17.28V23.04C1 23.2946 1.10078 23.5388 1.28016 23.7188C1.45954 23.8989 1.70284 24 1.95652 24C2.21021 24 2.4535 23.8989 2.63288 23.7188C2.81227 23.5388 2.91304 23.2946 2.91304 23.04V22.08H3.86957C4.63062 22.08 5.36051 21.7766 5.89865 21.2365C6.4368 20.6964 6.73913 19.9638 6.73913 19.2C6.73913 18.4362 6.4368 17.7036 5.89865 17.1635C5.36051 16.6234 4.63062 16.32 3.86957 16.32ZM3.86957 20.16H2.91304V18.24H3.86957C4.12325 18.24 4.36655 18.3411 4.54593 18.5212C4.72531 18.7012 4.82609 18.9454 4.82609 19.2C4.82609 19.4546 4.72531 19.6988 4.54593 19.8788C4.36655 20.0589 4.12325 20.16 3.86957 20.16ZM19.6522 18.24V19.68H21.5652C21.8189 19.68 22.0622 19.7811 22.2416 19.9612C22.421 20.1412 22.5217 20.3854 22.5217 20.64C22.5217 20.8946 22.421 21.1388 22.2416 21.3188C22.0622 21.4989 21.8189 21.6 21.5652 21.6H19.6522V23.04C19.6522 23.2946 19.5514 23.5388 19.372 23.7188C19.1926 23.8989 18.9493 24 18.6957 24C18.442 24 18.1987 23.8989 18.0193 23.7188C17.8399 23.5388 17.7391 23.2946 17.7391 23.04V17.28C17.7391 17.0254 17.8399 16.7812 18.0193 16.6012C18.1987 16.4211 18.442 16.32 18.6957 16.32H22.0435C22.2972 16.32 22.5405 16.4211 22.7198 16.6012C22.8992 16.7812 23 17.0254 23 17.28C23 17.5346 22.8992 17.7788 22.7198 17.9588C22.5405 18.1389 22.2972 18.24 22.0435 18.24H19.6522ZM11.5217 16.32H9.84783C9.59414 16.32 9.35085 16.4211 9.17146 16.6012C8.99208 16.7812 8.8913 17.0254 8.8913 17.28V23.04C8.8913 23.2946 8.99208 23.5388 9.17146 23.7188C9.35085 23.8989 9.59414 24 9.84783 24H11.5217C12.5365 24 13.5097 23.5954 14.2272 22.8753C14.9447 22.1552 15.3478 21.1784 15.3478 20.16C15.3478 19.1416 14.9447 18.1649 14.2272 17.4447C13.5097 16.7246 12.5365 16.32 11.5217 16.32ZM11.5217 22.08H10.8043V18.24H11.5217C12.0291 18.24 12.5157 18.4423 12.8745 18.8024C13.2332 19.1624 13.4348 19.6508 13.4348 20.16C13.4348 20.6692 13.2332 21.1576 12.8745 21.5176C12.5157 21.8777 12.0291 22.08 11.5217 22.08Z" fill="#333333"/>
</svg>
