<svg width="28" height="28" viewBox="0 0 28 28" fill="none" xmlns="http://www.w3.org/2000/svg">
<g clip-path="url(#clip0_4351_10577)">
<path d="M25.1429 24.1538H2.85714C2.62981 24.1538 2.4118 24.2511 2.25105 24.4242C2.09031 24.5973 2 24.8321 2 25.0769C2 25.3217 2.09031 25.5565 2.25105 25.7296C2.4118 25.9027 2.62981 26 2.85714 26H25.1429C25.3702 26 25.5882 25.9027 25.7489 25.7296C25.9097 25.5565 26 25.3217 26 25.0769C26 24.8321 25.9097 24.5973 25.7489 24.4242C25.5882 24.2511 25.3702 24.1538 25.1429 24.1538Z" fill="#333333"/>
<path d="M14.0423 23.2308L23.0274 14.7745C23.1662 14.6221 23.2387 14.4259 23.2304 14.2254C23.2222 14.0248 23.1339 13.8345 22.983 13.6925C22.8322 13.5506 22.63 13.4675 22.4169 13.4597C22.2038 13.452 21.9954 13.5202 21.8334 13.6508L14.8891 20.1782V3.72007C14.8891 3.50869 14.7999 3.30597 14.6411 3.1565C14.4823 3.00704 14.2669 2.92307 14.0423 2.92307C13.8177 2.92307 13.6023 3.00704 13.4434 3.1565C13.2846 3.30597 13.1954 3.50869 13.1954 3.72007V20.1782L6.25962 13.6508C6.1837 13.5673 6.09028 13.4996 5.98521 13.4517C5.88014 13.4039 5.76571 13.377 5.64908 13.3728C5.53245 13.3685 5.41615 13.387 5.30747 13.4271C5.1988 13.4672 5.1001 13.5279 5.01757 13.6056C4.93504 13.6833 4.87046 13.7762 4.82789 13.8784C4.78531 13.9807 4.76566 14.0902 4.77016 14.1999C4.77467 14.3097 4.80323 14.4174 4.85406 14.5163C4.90489 14.6152 4.9769 14.7031 5.06555 14.7745L14.0423 23.2308Z" fill="#333333"/>
</g>
<defs>
<clipPath id="clip0_4351_10577">
<rect width="24" height="24" fill="white" transform="translate(2 2)"/>
</clipPath>
</defs>
</svg>
